<svg xmlns="http://www.w3.org/2000/svg" viewBox="0 0 256 256">
    <path
        d="M80.932 6.444c-.22.264-.288 2.923-.237 9.277l.072 8.906 58.83.136c38.68.088 58.923.228 59.1.406.149.149 6.254 18.25 13.568 40.223 7.313 21.973 13.4 40.195 13.524 40.493.852 2.035 3.835 11.642 3.765 12.13l-.085.6-17.606.136c-9.683.075-17.758.235-17.944.355-.269.173-.339 7.874-.339 37.007 0 30.632-.062 36.838-.367 37.092-.27.225-12.704.287-46.791.237l-46.424-.069-.136-55.978c-.074-30.787-.237-56.079-.36-56.203-.506-.506-18.155-.424-18.528.086-.449.614-.51 130.1-.063 130.938.396.74 130.465.837 131.203.098.384-.383.426-4.145.426-37.369 0-36.248.01-36.95.524-37.224.348-.186 7.606-.28 21.653-.28 12.11 0 21.193-.104 21.279-.242.125-.204-2.567-8.855-4.181-13.437-.733-2.08-.988-2.844-2.893-8.667-.974-2.98-1.987-6.027-2.251-6.772-.651-1.839-.785-2.24-3.437-10.293-1.276-3.873-2.534-7.651-2.796-8.396-.686-1.95-.973-2.806-2.362-7.043-.684-2.085-6.68-20.125-13.322-40.087L212.676 6.209l-65.718-.069c-55.402-.057-65.766-.01-66.026.304" />
    <path
        d="M43.195 43.925c-.228.262-.358.627-.29.814.066.186-.01.338-.172.338s-.293.25-.293.555-.186.914-.412 1.352c-.227.437-.401.828-.389.867.034.103-.155.752-.531 1.83-.182.522-.365 1.07-.406 1.22s-.145.453-.23.677c-.3.793-.557 2.037-.496 2.397.034.201-.055.294-.197.205-.145-.09-.416.62-.61 1.6-.194.97-.435 1.627-.537 1.46-.102-.164-.27.258-.372.94s-.295 1.308-.429 1.39c-.133.084-.168.36-.076.616s.063.37-.065.254c-.231-.21-.967 1.953-.97 2.853-.001.26-.117.474-.256.474-.14 0-.254.25-.254.555s-.186.913-.412 1.351c-.227.438-.412.858-.413.932-.004.237-.166.791-.52 1.766a40 40 0 0 0-.71 2.266c-.203.725-.48 1.456-.616 1.625s-.333.825-.437 1.457-.295 1.216-.425 1.296-.16.355-.069.61c.092.256.063.37-.064.254-.232-.21-.967 1.953-.97 2.853-.002.26-.117.474-.256.474-.14 0-.254.25-.254.555s-.186.913-.412 1.351c-.227.438-.402.829-.389.867.033.103-.155.753-.531 1.831-.182.522-.365 1.07-.407 1.22-.042.148-.145.453-.23.676-.3.793-.556 2.037-.495 2.397.034.201-.057.292-.203.202s-.347.32-.448.92c-.1.596-.283 1.145-.405 1.22-.121.076-.161.412-.088.746.097.441.061.508-.126.244-.188-.265-.311-.022-.446.873-.102.682-.295 1.308-.429 1.39-.133.084-.168.36-.077.617.093.256.063.37-.064.254-.231-.21-.967 1.953-.97 2.852-.002.26-.117.474-.256.474-.14 0-.254.25-.254.555s-.186.914-.412 1.352c-.227.437-.424.889-.44 1.002-.058.407-.154.763-.453 1.668-.167.506-.228 1.043-.135 1.192s.042.195-.114.099c-.168-.104-.358.236-.468.838-.102.558-.343 1.26-.537 1.561-.194.302-.439 1.063-.545 1.692s-.3 1.21-.429 1.29c-.13.08-.16.354-.069.61.092.256.063.37-.064.254-.232-.21-.967 1.953-.97 2.852-.002.26-.117.474-.257.474s-.253.25-.253.555-.186.914-.412 1.352c-.227.437-.425.889-.441 1.002-.06.429-.158.775-.48 1.696-.182.521-.364 1.07-.406 1.219s-.145.453-.23.677c-.3.793-.557 2.037-.495 2.397.034.2-.058.292-.203.202-.147-.091-.347.319-.448.92-.1.595-.283 1.144-.405 1.22-.122.075-.161.411-.088.746.096.44.061.507-.126.243-.188-.264-.311-.021-.446.874-.102.682-.295 1.307-.43 1.39-.133.083-.166.35-.073.593q.171.443-.147.246c-.206-.128-.319.022-.323.43-.003.343-.848 3.118-1.878 6.164-1.031 3.045-1.813 5.635-1.74 5.755.075.12.031.218-.095.218-.128 0-.398.579-.602 1.286-.405 1.407-.396 1.379-.625 1.964a61 61 0 0 0-.889 2.709c-.02.074-.108.318-.196.541-.845 2.137-2.684 8.157-2.618 8.568.015.096-.08.25-.211.34-.197.137-.444.79-1.032 2.74-.023.074-.113.318-.2.541a61 61 0 0 0-.89 2.709c-.019.074-.109.318-.2.541-1.54 3.769-3.64 11.037-3.328 11.512.35.533.694.543 21.486.61 17.282.058 21.185.137 21.432.434.217.262.32 10.652.37 37.31l.069 36.945h131.367l.071-9.055c.056-7.065-.003-9.104-.27-9.273-.189-.12-25.33-.221-55.869-.226-34.512-.005-55.68-.105-55.933-.265-.357-.226-.422-4.797-.541-37.577l-.136-37.322-17.865-.07c-10.396-.04-17.969-.173-18.114-.318-.152-.151-.036-.814.295-1.69.902-2.393 1.578-4.487 1.997-6.183.055-.223.172-.467.259-.542.166-.141.804-2.324.852-2.911.015-.186.116-.339.223-.339.108 0 .28-.453.385-1.006.103-.554.36-1.34.571-1.747s.388-.96.393-1.229c.005-.268.245-.975.532-1.57s.528-1.265.533-1.485.239-1.013.518-1.76c.88-2.347 1.554-4.443 1.964-6.1.055-.224.171-.467.259-.542.166-.141.804-2.325.852-2.912.015-.186.115-.338.223-.338s.275-.421.371-.937c.097-.515.354-1.277.57-1.693.218-.415.396-.937.397-1.157 0-.22.231-1.013.51-1.76.88-2.347 1.555-4.443 1.964-6.1.055-.224.172-.467.26-.542.135-.116.334-.772.822-2.709.056-.223.173-.467.26-.541s.29-.623.45-1.22c.16-.595.444-1.51.63-2.03.187-.522.55-1.558.805-2.303l.792-2.302c.602-1.753 1.146-3.653 1.177-4.118.018-.253.095-.398.171-.321.12.12.362-.614.862-2.604.055-.223.173-.467.26-.541.166-.142.804-2.325.852-2.912.015-.186.13-.339.254-.339s.23-.274.235-.61c.004-.334.244-1.096.532-1.692s.527-1.264.532-1.484c.006-.221.24-1.013.519-1.76.88-2.347 1.554-4.443 1.964-6.1.054-.224.17-.468.258-.542.136-.117.335-.772.823-2.709.056-.223.173-.467.26-.542.088-.074.29-.623.45-1.219.16-.595.444-1.51.63-2.031.187-.521.55-1.557.805-2.302l.792-2.303c.602-1.752 1.146-3.653 1.177-4.117.018-.254.086-.407.153-.34.066.066.29-.123.499-.42.464-.664 97.954-.876 98.615-.215.25.25.327 13.038.334 55.865.007 45.753.072 55.623.369 56.014.483.637 17.756.738 18.28.107.223-.27.286-17.68.236-65.887l-.069-65.52-65.573-.068c-62.191-.064-65.595-.043-65.987.406" />
</svg>