<svg xmlns="http://www.w3.org/2000/svg" width="400" height="400"><path fill-rule="evenodd" d="M195.828 41.371c-3.91 4.083-5.487 5.083-9.86 6.257-6.604 1.772-11.506 4.386-15.878 8.467l-2.111 1.97-1.391-1.222c-7.137-6.267-27.8-1.068-39.307 9.889-2.763 2.631-3.095 2.824-6.235 3.611-14.945 3.748-27.817 16.54-27.841 27.668-.006 2.814-.674 3.76-3.077 4.365-5.016 1.263-8.867 3.626-14.245 8.74-4.104 3.901-6.623 5.221-11.041 5.782-5.955.757-6.37 1.404-4.506 7.025 1.404 4.233 1.775 9.151.866 11.477-1.61 4.119-1.983 10.62-.944 16.438.786 4.402.702 4.695-1.674 5.812-1.443.678-2.33 1.555-4.036 3.99-7.773 11.092-9.57 20.952-6.271 34.407l1.041 4.248-1.058 3.752c-2.515 8.921-2.094 16.84 1.353 25.45 2.473 6.174 6.133 11.439 8.92 12.828 2.526 1.26 2.621 1.558 1.771 5.583-.97 4.592-.776 11.15.44 14.892 1.299 3.995 1.18 8.537-.339 12.922-1.8 5.194-1.531 5.582 4.897 7.059 4.822 1.108 6.193 1.909 10.883 6.355 4.529 4.293 7.639 6.307 12.173 7.882 5.228 1.816 4.885 1.57 4.606 3.314-1.655 10.35 11.936 24.621 27.837 29.23 3.782 1.096 4.092 1.272 6.713 3.811 7.389 7.157 14.769 10.717 24.582 11.858 7.074.822 12.916-.076 14.733-2.265.763-.921 1.727-.657 3.193.874 3.427 3.581 12.889 8.523 16.378 8.555 1.984.018 5.945 2.599 9.249 6.027 4.36 4.524 4.302 4.523 8.688.03 3.887-3.983 5.769-5.095 10.863-6.419 4.958-1.29 10.055-3.94 13.519-7.03 3.346-2.985 3.455-3.013 5.468-1.413 1.988 1.58 3.381 1.822 10.013 1.743 11.322-.135 19.779-3.746 28.726-12.264 2.478-2.36 2.987-2.658 5.6-3.283 14.803-3.541 27.715-16.02 28.207-27.262.18-4.127.231-4.207 3.067-4.89 4.605-1.108 10.252-4.533 14.2-8.612 4.118-4.255 6.528-5.475 12.194-6.174 4.988-.615 5.32-1.314 3.328-7.001-1.607-4.59-1.722-8.633-.358-12.647 1.292-3.802 1.547-9.705.629-14.581-.861-4.574-.64-5.333 1.899-6.526 4.429-2.082 10.691-14.566 11.355-22.638.111-1.35.267-2.658.346-2.906.352-1.1-.651-8.861-1.635-12.658l-1.081-4.17 1.061-3.761c3.311-11.744 1.621-22.228-5.307-32.927-2.254-3.481-3.988-5.225-5.785-5.818-1.34-.442-2.154-1.593-1.676-2.367 1.631-2.638 1.847-11.658.416-17.304-1.541-6.08-1.388-9.566.633-14.418 1.763-4.231.899-5.346-4.756-6.138-4.492-.628-7.374-1.853-9.05-3.846C322.144 108.307 312.09 102 308.451 102c-1.13 0-1.251-.343-1.396-3.935-.472-11.747-14.385-24.779-30.151-28.242-.716-.157-2.515-1.532-4.544-3.473-11.765-11.251-32.133-15.919-39.469-9.045l-.909.852-2.291-2.239c-3.864-3.777-8.362-6.208-14.969-8.089-5.109-1.455-6.554-2.328-10.371-6.268-4.374-4.516-4.381-4.516-8.523-.19m5.957 6.605c2.538 2.476 5.944 4.284 11.386 6.045 9.117 2.95 12.964 5.685 14.765 10.499 1.412 3.775 1.335 4.624-.536 5.934-2.119 1.482-2.561 1.435-4.365-.468-1.754-1.851-2.975-2.55-6.395-3.662-4.501-1.462-8.38-3.721-13.066-7.609-2.893-2.401-4.099-2.207-8.916 1.431-4.033 3.046-8.417 5.435-11.49 6.262-2.626.707-3.963 1.479-6.034 3.487-4.1 3.973-7.518-.434-4.705-6.067 2.312-4.63 5.098-6.595 13.333-9.402 7.109-2.423 9.185-3.469 11.892-5.994 2.585-2.411 2.174-2.365 4.131-.456m-43.15 13.655c-1.159 1.378-1.38 2.092-1.53 4.957L157 68.575l-2.8 1.035c-1.54.569-4.112 1.725-5.715 2.569l-2.914 1.536-1.775-1.275c-2.448-1.758-5.667-3.161-7.703-3.357-2.398-.231-2.377-.307.623-2.292 6.437-4.256 12.429-6.112 20.42-6.324l2.535-.067zm92.472-.237c3.805.859 7.398 2.412 10.993 4.75 3.271 2.128 3.699 2.656 2.15 2.656-1.401 0-3.928.978-5.855 2.266-4.268 2.853-3.543 2.74-6.851 1.071-1.619-.817-4.204-1.953-5.744-2.526l-2.8-1.04-.033-2.43c-.024-1.739-.261-2.759-.835-3.586-1.656-2.389-1.786-2.281 2.419-2.014 2.125.135 5.075.518 6.556.853m-46.589 5.579c1.92 1.415 4.524 2.949 5.786 3.408 1.263.459 3.072 1.12 4.021 1.469 5.304 1.952 7.298 5.383 7.815 13.452.287 4.476-.734 5.153-4.059 2.695-2.703-1.999-5.529-1.414-8.261 1.708l-1.743 1.994-1.184-1.635c-.651-.898-1.592-2.724-2.09-4.057-2.391-6.393-7.209-5.989-9.99.836-.682 1.674-1.67 3.447-2.195 3.94l-.954.896-1.072-1.62c-2.07-3.127-4.424-3.725-8.011-2.035-4.204 1.981-4.581 1.816-4.581-2 0-8.888 2.363-12.665 9.275-14.825 3.629-1.135 6.739-2.845 10.08-5.543 2.246-1.814 3.137-1.65 7.163 1.317m-4.441 2.657c.079.237.314.43.523.43s.444-.193.523-.43c.079-.236-.156-.43-.523-.43s-.602.194-.523.43m1.702.804c-.157.254-.764.349-1.41.22-1.204-.241-1.313.652-.135 1.104.708.271 2.566-.398 2.566-.924 0-.612-.717-.893-1.021-.4m-5.203.937c-.851.627-.575.847 1.424 1.133l1 .143-1.1.541c-1.379.678-1.437 1.612-.1 1.612 1.196 0 1.348.986.243 1.577-.581.311-1 .215-1.798-.413-1.162-.914-1.135-.079.042 1.296 1.31 1.531 3.713.728 3.713-1.242 0-.912 1.771-2.818 2.618-2.818.688 0 .755.929.149 2.061-.321.601-.682.747-1.4.566-1.044-.262-1.255.125-.487.893 1.343 1.343 3.385-.483 2.883-2.578-.567-2.371-1.812-2.793-3.363-1.142-1.116 1.188-1.797 1.315-1.214.226.952-1.779-.912-3.104-2.61-1.855m-59.736 3.884c2.909.974 4.899 3.317 3.534 4.161-.235.145-1.228 1.911-2.208 3.924-2.715 5.579-2.068 5.328-11.366 4.411-3.728-.368-4.227-1.423-2.772-5.857 1.84-5.604 7.36-8.464 12.812-6.639m22.119 3.048c-2.356 2.263-3.743 3.92-3.931 4.697-.395 1.631-2.004 3.664-3.523 4.449-1.029.532-7.818 2.551-8.578 2.551-.451 0 .381-3.039 1.361-4.974C146.983 79.708 154.83 74.92 161 74.829l1.6-.024zm84.249-2.678c6.439 1.776 11.45 6.143 13.578 11.83 1.068 2.854 1.198 2.795-3.45 1.56-5.138-1.365-6.602-2.356-8.151-5.518-.885-1.806-2.132-3.353-4.504-5.588l-3.281-3.091 1.408-.009c.774-.005 2.754.362 4.4.816m28.548.412c2.887 2.271 5.293 7.309 4.862 10.18l-.263 1.757-3.678-.002c-2.022-.001-4.487.148-5.477.331-2.74.506-2.823.428-5.529-5.144-2.791-5.747-2.791-5.746-.1-7.168 2.175-1.15 8.703-1.12 10.185.046m-99.785 1.348 1.131.585-.545 2.315c-.299 1.273-.55 3.395-.557 4.715-.016 3.11-.358 3.675-1.863 3.074-1.344-.537-5.751-1.264-7.737-1.277-3.445-.023-3.215-.545 2.6-5.912 4.566-4.213 5.086-4.475 6.971-3.5m63.046 3.482c6.13 5.481 6.154 5.669.783 6.097-1.76.14-4.067.539-5.126.886-2.347.77-2.325.79-2.522-2.328-.087-1.387-.337-3.386-.555-4.442-.584-2.826-.501-3.464.503-3.868 1.766-.709 2.425-.361 6.917 3.655m52.53-.35c4.175 2.495 9.349 7.908 11.814 12.36 1.335 2.412 1.371 2.323-.935 2.323-2.287 0-3.868.518-5.097 1.669l-.871.816-2.129-2.061c-1.171-1.133-3.434-2.894-5.029-3.912l-2.9-1.852v-3.866c0-3.429-.386-5.664-1.401-8.111-.356-.858 2.886.447 6.548 2.634M118.8 77.774c0 .096-.209.681-.464 1.3s-.57 3.284-.7 5.922l-.236 4.797-2.8 1.919c-1.54 1.056-3.616 2.723-4.614 3.704-2.112 2.077-2.274 2.107-4.224.784-1.119-.759-1.99-1-3.618-1-1.304 0-2.144-.174-2.144-.444 0-2.107 5.938-9.574 9.963-12.529 2.796-2.052 8.837-5.096 8.837-4.453m48.274 16.006c3.593.765 6.512 1.799 9.902 3.508l2.777 1.4-1.731 1.145c-1.651 1.093-1.957 1.148-6.577 1.2-5.603.062-6.847.349-12.923 2.989-4.86 2.111-7.563 2.68-9.794 2.064-2.112-.583-3.585.271-4.692 2.72-1.226 2.714-3.979 5.65-8.267 8.817-3.852 2.845-5.805 5.135-7.579 8.886-1.087 2.298-1.955 3.152-4.551 4.479l-1.362.696.234-3.742c.576-9.211 4.723-17.322 13.596-26.588 3.814-3.983 3.756-3.95 9.903-5.741 8.585-2.501 15.212-3.078 21.064-1.833M245 93.638c1.98.239 6.03 1.047 9 1.796l5.4 1.36 4.441 4.534c9.213 9.406 13.363 17.583 13.841 27.272.191 3.873-3.41 2.623-5.759-2-2.036-4.005-3.891-6.17-7.692-8.977-4.114-3.039-6.975-6.029-8.209-8.578-1.205-2.488-2.128-3.202-3.925-3.036-4.104.379-6.106.045-9.718-1.618-5.692-2.623-8.272-3.238-13.983-3.338-4.578-.079-5.113-.168-6.3-1.045-1.734-1.283-1.685-1.4 1.202-2.858 6.86-3.463 13.383-4.518 21.702-3.512m-111.771 1.431c.296.296-.707 1.479-3.364 3.964l-3.786 3.543-4.34.066c-3.385.051-5.042.287-7.539 1.071-3.734 1.173-3.761 1.166-2.616-.687 2.014-3.259 8.181-7.338 12.416-8.212 2.301-.474 8.675-.299 9.229.255m145.131.494c3.427 1.288 6.363 3.249 8.687 5.805 3.167 3.483 2.728 3.79-2.847 1.987-2.744-.888-3.666-1.004-6.47-.817-3.126.209-3.337.169-4.8-.915-2.65-1.963-6.741-6.371-6.103-6.576.315-.101.843-.286 1.173-.411 1.306-.496 8.219.123 10.36.927M99.844 108.992c2.801 1.836 2.122 4.867-1.343 5.991-1.998.648-4.032 2.021-8.85 5.973-2.327 1.91-6.551 4.11-10.051 5.236-4.177 1.344-4.62 2.5-3.4 8.873.783 4.094.761 8.92-.06 12.996-.54 2.676-.582 3.787-.231 6.055.514 3.316.42 3.637-1.3 4.453-6.226 2.954-11.28-9.881-7.834-19.896 1.444-4.196 1.765-7.886 1.016-11.661-.79-3.982-.786-3.992 1.908-4.627 3.691-.869 7.908-3.571 10.428-6.682 4.739-5.85 15.461-9.499 19.717-6.711m207.898-.758c3.965 1.023 7.404 3.095 11.697 7.048 5.234 4.819 9.648 7.518 12.295 7.518 1.133 0 1.347.806.776 2.917-.791 2.922-.438 8.704.847 13.883 2.806 11.311-1.78 22.121-8.057 18.99-1.609-.803-1.725-1.224-1.192-4.338.374-2.181.335-3.238-.228-6.176-.839-4.377-.867-8.898-.08-13.011 1.272-6.649.907-7.416-4.4-9.234-3.896-1.335-7.647-3.494-10.658-6.136-3.33-2.921-4.609-3.748-7.308-4.723l-2.434-.88-.118-2.182c-.139-2.571.105-2.856 3.147-3.674 2.793-.75 2.812-.75 5.713-.002m-187.273 3.242a107 107 0 0 0-2.079 5.224c-.493 1.375-.943 2.5-.999 2.5s-1.246-.534-2.646-1.186c-1.4-.653-3.535-1.438-4.745-1.744-2.17-.549-2.202-.579-2.32-2.148-.16-2.123-.094-2.16 7.32-4.226 7.253-2.02 7.055-2.077 5.469 1.58m163.576-1.906c2.065.643 4.655 1.413 5.755 1.712 1.741.472 2.058.721 2.451 1.925.638 1.957.409 2.242-2.586 3.23-1.466.483-3.638 1.305-4.826 1.826-1.189.521-2.214.895-2.277.832s-.66-1.59-1.324-3.392-1.575-3.995-2.023-4.873c-1.481-2.905-.919-3.051 4.83-1.26m15.513 11.082c.75.15 2.419 1.292 4.135 2.832 3.386 3.035 8.412 6.227 11.274 7.158 2.343.761 3.552 1.672 3.253 2.449-.769 2.004-1.058 8.075-.566 11.862.967 7.44.039 10.839-4.083 14.961-4.855 4.855-7.571 4.736-7.571-.332 0-4.16-1.893-6.374-5.46-6.388-3.198-.013-3.202-.528-.038-5.103 4.536-6.562 2.893-9.409-5.313-9.213-6.002.143-5.836.225-4.575-2.265 1.744-3.446 1.119-5.012-3.304-8.279-3.867-2.857-1.201-5.361 7.752-7.281 3.417-.733 3.015-.698 4.496-.401m-192.66.922c8.076 2.065 9.545 4.112 5.153 7.176-3.749 2.614-4.421 4.912-2.406 8.217.414.678.753 1.36.754 1.515.003.584-2.926.796-5.907.427-3.884-.481-5.473-.087-6.511 1.616-1.433 2.349-1.148 3.436 2.386 9.109 1.936 3.108 1.855 3.548-.659 3.56-3.857.018-5.268 1.656-5.606 6.504-.332 4.764-1.15 4.892-6.302.981-5.512-4.184-6.852-7.312-5.639-13.162.774-3.736.817-9.308.095-12.377-.668-2.837-.423-3.272 2.449-4.339 4.098-1.522 9.408-4.884 11.695-7.405 2.517-2.774 5.053-3.215 10.498-1.822m119.418 8.153c3.566 3.59 6.484 6.693 6.484 6.896 0 .627-12.954 13.377-13.591 13.377-.649 0-13.609-12.739-13.609-13.377 0-.648 12.956-13.419 13.616-13.421.339-.001 3.534 2.935 7.1 6.525m81.147 2.943c-.149.149.122.688.602 1.199 1.015 1.081.776 1.595-.439.945-1.23-.658-1.73-.145-.978 1.003.591.902.587.995-.059 1.243-1.085.416-1.99-.414-1.984-1.823.004-1.116-.055-1.183-.5-.574-1.646 2.25.949 5.641 2.701 3.529.361-.434.918-.539 1.949-.369 2.601.431 2.748.552 1.701 1.407-1.151.938-1.417.952-2.253.116-.87-.87-1.799-.105-1.017.837 1.286 1.549 4.639-.182 4.347-2.244-.101-.714-.421-.967-1.333-1.056-2.174-.213-2.378-.428-1.247-1.318 1.257-.988 1.292-1.32.247-2.365-.841-.841-1.289-.978-1.737-.53m-219.259 1.323c-.138.224-.148.575-.021.779.126.205.047.486-.176.624-.224.138-.407.061-.407-.172s-.27-.424-.6-.424c-.783 0-.775.758.01 1.059.476.183.507.359.144.797-.381.458-.327.512.289.291 1.27-.455 1.757-1.002 1.757-1.972 0-1.025-.603-1.618-.996-.982m1.876.487c-.614.614-.612 1.719.005 2.707.635 1.017.136 1.491-.695.661-1.235-1.236-2.59-.487-2.59 1.432 0 1.39.691 1.459 1.2.12.459-1.208 1.387-1.359 1.078-.176-.275 1.05.868 1.574 1.391.638.204-.364.644-.662.977-.662 1.013 0 .515 2.101-.632 2.67-.813.404-.872.533-.336.739.895.343 3.008-.82 3.33-1.833.282-.889-.734-2.376-1.623-2.376-.271 0-.588-.405-.706-.9a34 34 0 0 0-.493-1.8c-.225-.726-.125-.9.518-.9 1.224 0 1.959 1.087 1.372 2.027-.669 1.072-.602 1.247.424 1.101 1.522-.216 1.483-2.509-.056-3.305-1.442-.746-2.513-.794-3.164-.143m220.387.547c.087.752.482 1.328 1.133 1.652 1.473.733 1.473-.068 0-1.541l-1.265-1.265zm1.133-.427c0 .367.193.602.43.523s.43-.314.43-.523-.193-.444-.43-.523-.43.156-.43.523m-116.688 6.449c16.085 15.439 32.902 16.345 48.046 2.589 3.855-3.502 3.939-3.499 6.642.239 1.21 1.674 3.703 5.13 5.541 7.68l3.34 4.637-1.54 1.337c-3.826 3.319-13.218 8.305-19.798 10.509-20.175 6.76-35.921-.758-44.487-21.24-4.577-10.945-4.188-11.937 2.256-5.751m-11.926 14.398c5.924 1.442 11.791 6.531 14.56 12.628 4.48 9.867 1.797 22.272-7.405 34.234-2.907 3.78-2.974 3.601 1.679 4.461 8.969 1.658 11.617.342 18.181-9.036 12.513-17.878 19.352-23.353 30.399-24.34 19.428-1.734 32.817 17.666 33.194 48.098.285 22.929-14.411 40.056-34.438 40.135-14.074.056-21.849-11.043-20.756-29.627.256-4.356.809-4.449 3.7-.619 9.414 12.465 28.721 9.382 36.198-5.781 5.821-11.806 4.343-31.768-2.566-34.654-6.38-2.666-18.734 5.999-27.738 19.454-4.857 7.259-11.334 10.904-19.493 10.97-2.035.017-3.698.12-3.695.23.002.11.443 1.788.98 3.729 10.007 36.173-12.295 60.846-43.773 48.426-18.519-7.308-32.814-31.31-34.99-58.755-.122-1.54-.327-3.981-.456-5.424-.189-2.13-.111-2.725.417-3.163 1.012-.84 1.37-.151 2.621 5.037 4.69 19.457 13.453 31.835 26.027 36.762 15.701 6.154 35.528-2.319 36.291-15.509.583-10.071-8.395-14.439-28.23-13.735-5.921.211-7.346.158-7.513-.276-.113-.295.416-4.396 1.177-9.114.76-4.718 1.49-9.298 1.622-10.178.492-3.281.14-3.099 5.366-2.787 17.247 1.029 27.916-6.941 21.825-16.305-3.187-4.899-13.28-4.382-25.911 1.328a1071 1071 0 0 1-4.942 2.226c-.266.116-3.212-2.37-6.547-5.526s-6.942-6.515-8.017-7.467c-3.254-2.884-2.759-3.465 7.047-8.252 14.407-7.034 26.024-9.401 35.186-7.17m-100.123 9.078c1.175.949 3.002 2.315 4.059 3.035l1.923 1.309-1.739 1.866c-.957 1.026-2.518 2.9-3.471 4.165-2.564 3.407-2.513 3.466-4.465-5.074l-1.274-5.575.896-.725c1.276-1.033 1.676-.935 4.071.999m238.548-.913c.715.791.695.974-.79 7.1-1.898 7.83-1.554 7.602-4.985 3.306-1.589-1.99-3.237-3.805-3.663-4.032-1.151-.616-.966-1.016 1.127-2.441 1.045-.712 2.862-2.071 4.037-3.02 2.385-1.926 3.2-2.1 4.274-.913m-258.364 6.45c1.642.726 1.81.921 1.614 1.874-.12.585-.425 3.314-.677 6.064-.56 6.108-.437 5.864-3.82 7.574-1.52.768-3.628 2.258-4.683 3.311-1.056 1.053-2.001 1.915-2.1 1.915s-.18-2.385-.178-5.3c.004-7.429 1.262-12.415 4.485-17.772l1.247-2.072 1.14 1.798c.804 1.268 1.68 2.036 2.972 2.608m281.152 1.291c2.03 4.456 2.76 8.107 2.782 13.914.023 6.078.026 6.073-2.461 3.649-1.097-1.068-3.34-2.597-5.047-3.441l-3.073-1.519-.013-2.078c-.007-1.143-.261-4.056-.564-6.474-.62-4.941-.636-4.85.931-5.194 1.247-.274 2.322-1.296 3.464-3.292l.733-1.282.975 1.436c.537.789 1.559 2.716 2.273 4.281M102.042 168.5c.112 2.377-.23 3.496-1.803 5.9-2.575 3.934-3.166 5.848-3.824 12.4-.508 5.051-1.272 7.57-3.067 10.101-1.757 2.478-1.749 3.845.036 6.277 1.947 2.653 2.205 3.497 3.034 9.95.9 7.004 1.502 8.888 4.066 12.721 1.872 2.798 1.984 3.106 1.734 4.771-.332 2.216-.294 2.219-4.076-.31-8.214-5.494-13.099-13.334-15.962-25.621l-1.098-4.712 1.27-5.288c2.942-12.245 7.668-19.735 15.799-25.035 3.569-2.326 3.833-2.404 3.891-1.154m198.323.165c12.369 7.182 20.471 24.592 17.281 37.135-3.169 12.463-8.198 20.06-16.646 25.152-3.018 1.818-3 1.821-3-.408 0-1.731 1.36-5.344 2.012-5.344.965 0 2.798-5.712 3.402-10.602.829-6.721 1.512-9.08 3.412-11.788 1.808-2.579 1.774-3.217-.328-6.122-1.665-2.301-2.395-4.57-2.706-8.411-.499-6.168-1.863-10.641-4.42-14.493-1.117-1.683-1.372-2.449-1.372-4.125 0-2.395-.029-2.383 2.365-.994M73.546 171.7c.247.935.733 2.995 1.079 4.578.433 1.982 1.04 3.416 1.95 4.608 1.959 2.565 2.044 3.579.763 9.097-1.262 5.437-1.269 5.445-2.988 3.117-4.392-5.951-5.431-13.77-2.765-20.8 1.042-2.747 1.366-2.847 1.961-.6m254.384-.8c3.381 6.547 2.344 16.399-2.35 22.325-1.662 2.098-1.647 2.11-2.685-2.129-1.381-5.638-1.13-7.871 1.339-11.896.939-1.53 1.557-3.266 2.029-5.7.719-3.712.926-4.034 1.667-2.6M66.239 192.096c.419.933 1.804 3.105 3.079 4.827l2.318 3.13-1.955 2.674a181 181 0 0 0-3.219 4.546c-2.023 2.999-3.818 2.844-6.58-.567-2.888-3.565-3.388-5.631-2.253-9.307 1.758-5.691 6.991-8.914 8.61-5.303m271.338-.908c4.085 2.084 6.651 8.429 4.842 11.975-2.529 4.956-6.954 7.715-8.338 5.197-.374-.683-1.51-2.293-2.524-3.58-3.483-4.422-3.464-4.932.381-10.112 1.116-1.502 2.138-3.077 2.272-3.5.312-.982 1.416-.975 3.367.02M77.585 210.802l1.221 4.998-.816 1c-1.474 1.807-3.129 5.737-4 9.5-.991 4.281-1.184 4.416-2.37 1.659-2.849-6.624-1.641-15.521 2.889-21.285 1.534-1.951 1.619-1.837 3.076 4.128m247.843-4.302c4.714 5.576 5.899 15.128 2.712 21.871l-1.053 2.229-1.138-4.72c-.77-3.193-1.474-5.16-2.177-6.082-2.217-2.905-2.346-4.933-.733-11.496.868-3.534.903-3.56 2.389-1.802m-269.949 4.658c1.118 1.077 3.198 2.515 4.623 3.195 3.431 1.638 3.538 1.811 3.762 6.131.106 2.044.36 4.694.564 5.889.205 1.196.372 2.312.372 2.482 0 .169-.782.653-1.737 1.076-1.611.712-3.463 2.642-3.463 3.607 0 2.42-3.017-2.402-4.942-7.9-1.098-3.136-2.216-16.438-1.381-16.438.094 0 1.085.881 2.202 1.958m291.547.311c.828 6.627-1.818 17.479-5.284 21.674l-.779.943-1.111-1.678a6.7 6.7 0 0 0-2.919-2.479c-1.775-.785-1.804-.827-1.527-2.264.507-2.635.968-6.628.981-8.511.017-2.439 1.033-3.681 4.255-5.203 1.615-.763 3.1-1.85 4.053-2.965 1.921-2.246 1.992-2.232 2.331.483m-262.862 14.3c1.447 1.853 3.082 3.724 3.634 4.158 1.335 1.05 1.426.901-2.098 3.436-1.705 1.227-3.584 2.618-4.175 3.093-1.165.935-3.525.485-3.525-.673 0-1.227 3.124-13.383 3.44-13.383.051 0 1.277 1.516 2.724 3.369m236.66 4.509c1.431 5.937 1.429 5.776.075 6.55-1.084.619-1.143.594-4.299-1.82-1.76-1.346-3.708-2.766-4.329-3.156l-1.128-.708 1.739-1.872c.956-1.03 2.621-3.026 3.7-4.436l1.963-2.563.552 1.563c.303.86 1.081 3.759 1.727 6.442M93.52 236.88c.281.281.482 1.648.486 3.3.009 4.281 1.854 6.62 5.22 6.62 3.406 0 3.453.393.563 4.71-4.188 6.255-3.125 10.023 2.736 9.704 8.286-.451 8.236-.468 6.887 2.428-1.667 3.581-1.26 4.731 2.687 7.602 3.893 2.832 3.374 4.192-2.436 6.378-7.071 2.66-9.468 2.41-13.733-1.431-3.063-2.758-6.781-5.077-10.688-6.664-3.415-1.388-3.522-1.588-2.882-5.399.662-3.937.601-8.094-.16-10.928-1.587-5.912.086-9.776 6.203-14.33 3.366-2.506 4.255-2.852 5.117-1.99m217.235 1.266c6.935 4.579 8.001 7.218 6.885 17.054-.44 3.88-.433 5.186.046 8.346.676 4.454.6 4.604-3.086 6.054-3.575 1.406-7.531 3.894-10.63 6.683-4.243 3.819-7.655 3.965-15.156.651-4.502-1.989-4.654-2.969-.888-5.708 3.92-2.851 4.378-4.17 2.677-7.697-1.272-2.636-1.48-2.529 4.913-2.529h5.444l.956-1.4c1.455-2.134 1.077-4.122-1.444-7.577-2.013-2.759-2.21-3.18-2.119-4.523.037-.557.418-.7 1.867-.7 3.92 0 5.776-2.126 5.779-6.62.002-4.363.745-4.681 4.756-2.034m-235.736 3.518c1.439.849 1.45.876 1.117 2.697-.472 2.585-.298 6.462.47 10.447.644 3.339.637 3.532-.35 9.566-1.267 7.745-1.237 7.833 3.224 9.414 5.875 2.083 9.615 4.33 14.352 8.624.898.814 2.698 1.874 4 2.355 7.291 2.693 2.416 9.091-5.504 7.225-4.028-.949-6.7-2.735-14.728-9.84-2.995-2.651-7.023-4.951-8.671-4.952-1.678 0-2.173-.983-1.466-2.908.936-2.546.76-6.65-.517-12.092-2.251-9.596-1.108-16.716 3.306-20.592 1.608-1.412 2.293-1.404 4.767.056m254.893.104c4.083 3.689 5.597 12.026 3.46 19.053-1.336 4.39-1.707 10.497-.813 13.375.765 2.46.533 2.763-2.773 3.624-3.267.851-5.46 2.211-8.986 5.572-7.328 6.986-12.965 9.71-17.875 8.64-3.729-.814-4.186-1.258-4.044-3.938l.119-2.262 2.478-.852c2.336-.802 3.695-1.713 8.871-5.943 2.283-1.866 6.505-4.079 9.928-5.204 4.303-1.413 4.825-2.72 3.53-8.833-.777-3.666-.763-8.705.035-12.962.603-3.219.593-4.584-.06-8.084-.258-1.385-.196-1.489 1.474-2.46 2.339-1.36 2.883-1.328 4.656.274m-23.283 15.661c-.969.969-.794 2.513.345 3.032 1.681.766 1.956 4.288.293 3.76-1.12-.355-1.404-1.407-.615-2.279.638-.704.62-.742-.343-.742-2.121 0-1.698 2.777.542 3.558 2.193.764 3.405-.032 2.734-1.798-.666-1.751-.525-2.411.346-1.622 1.338 1.21 2.869.56 2.869-1.218 0-1.222-.723-1.174-1.2.08-.502 1.319-1.353 1.312-1.1-.01.243-1.275-.339-1.66-1.257-.829-1.007.911-1.643.79-1.643-.312 0-1.041.565-1.656 1.8-1.96.469-.115.191-.215-.671-.243-.859-.027-1.734.216-2.1.583M90.6 259.278c-1.058.6-1.386 1.13-1.394 2.249-.005.744-.164.877-.806.673-.977-.31-.977-.315-.051 1.5.795 1.56 1.251 1.57 1.251.026 0-.824.137-.908 1.1-.678 1.765.422 1.986.72.7.945-1.517.266-1.855 1.871-.627 2.982.784.71.819.71 1.091.003.166-.433.088-.794-.192-.887-.559-.187-.641-1.291-.096-1.291.207 0 .488.18.624.4.604.977 1.464.404 1.2-.8-.223-1.014-.142-1.2.519-1.2 1.163 0 1.76.943 1.432 2.262-.25 1.001-.208 1.076.343.622 2.143-1.765.327-5.38-2.06-4.102-.6.321-1.211.261-2.476-.245l-1.678-.672.897-.727c1.009-.817 2.423-.403 2.423.709 0 .82.963.48 1.133-.399.303-1.565-1.606-2.35-3.333-1.37m220.877 3.402c-.773.2-1.632 1.946-1.256 2.554.381.617.979.407.979-.345 0-.391.28-1.111.623-1.6s.567-.868.5-.843c-.068.026-.448.131-.846.234m-224.021 1.198c-.451.45-.275.922.344.922.33 0 .6-.169.6-.376 0-.505-.625-.866-.944-.546m224.422-.022c-.32.319.041.944.546.944.207 0 .376-.27.376-.6 0-.619-.472-.795-.922-.344m-34.092 7.044c-1.152 11.367-4.493 18.003-14.049 27.905l-4.063 4.21-7.737 1.992c-11.793 3.037-19.234 2.578-27.937-1.724-4.858-2.401-2.627-4.787 4-4.278 4.357.335 7.412-.354 13.572-3.06 4.693-2.062 6.467-2.386 10.729-1.955 1.602.162 2.563-.639 3.768-3.143 1.122-2.33 4.205-5.625 7.4-7.908 3.437-2.457 6.848-6.272 8.21-9.183 1.275-2.724 1.783-3.278 4.121-4.491 2.248-1.166 2.268-1.148 1.986 1.635m-154.056-1.727c1.818.692 3.911 2.935 5.028 5.39 1.244 2.737 3.5 5.236 7.046 7.807 3.696 2.681 6.516 5.59 8.037 8.292 1.868 3.319 1.839 3.304 6.173 3.215 3.673-.075 3.893-.027 7.386 1.59 6.014 2.786 8.519 3.4 14.2 3.485 4.578.068 5.126.158 6.495 1.061 1.884 1.244 1.885 1.241-.395 2.364-10.38 5.115-17.045 5.725-29.1 2.664l-7.6-1.93-4.926-4.856c-9.674-9.536-12.734-15.597-13.909-27.555-.196-1.998-.05-2.141 1.565-1.527m-4.372 16.527c1.069 2.695 2.029 5.125 2.135 5.4.318.826-1.135.593-7.175-1.153-6.647-1.922-6.718-1.964-6.718-3.972v-1.527l3.3-1.032c1.815-.568 3.93-1.381 4.7-1.807.77-.427 1.493-.783 1.608-.792s1.082 2.188 2.15 4.883m164.762-4.231c.704.367 2.81 1.162 4.68 1.765l3.4 1.097.121 1.815.121 1.815-3.321.997c-6.877 2.064-10.467 3.029-10.637 2.859-.096-.096.644-2.299 1.645-4.896s1.916-5.036 2.033-5.421c.262-.862.365-.863 1.958-.031m-168.419 15.169c3.537 1.083 4.633 1.209 6.948.8 2.449-.433 4.185.496 7.585 4.056 3.356 3.514 3.417 3.894.684 4.217-6.778.803-15.01-2.78-18.98-8.26-1.824-2.518-1.811-2.521 3.763-.813M289.2 295.42c0 5.234-14.203 11.73-21.325 9.752-1.912-.531-1.994-.379 2.435-4.499l3.709-3.452 3.491.158c2.953.134 4.075-.015 7.29-.964 4.322-1.277 4.4-1.294 4.4-.995m-179.4 9.014c1.1 1.109 3.305 2.846 4.9 3.861 1.595 1.014 2.917 2.038 2.938 2.275.02.236.019 2.05-.003 4.03-.029 2.618.171 4.199.733 5.796.957 2.716 1.077 2.647-2 1.162-6.286-3.034-11.751-7.903-15.107-13.458-2.074-3.431-2.096-3.3.559-3.3 2.246 0 4.01-.631 4.958-1.774.727-.875.785-.848 3.022 1.408m184.19-.842c1.063.922 3.02 1.364 5.008 1.132 1.774-.207 1.758.031-.234 3.384-3.163 5.324-8.56 10.195-14.705 13.271-3.391 1.698-3.502 1.68-2.593-.418.439-1.013.757-3.175.905-6.157l.229-4.596 3-2.07c1.65-1.139 3.712-2.806 4.581-3.704 1.774-1.833 2.486-1.99 3.809-.842m-99.801 8.008c.496.99 1.112 2.449 1.368 3.241 1.719 5.313 7.199 4.631 9.416-1.171.57-1.491 1.547-3.324 2.172-4.072l1.136-1.361 1.067 1.612c2.218 3.352 7.613 4.403 9.224 1.796.378-.611 2.478-1.185 3.048-.833.73.451.607 6.084-.202 9.241-1.271 4.961-3.43 7.269-8.018 8.571-3.617 1.027-6.92 2.715-9.702 4.959-3.156 2.544-4.096 2.594-6.917.364-2.725-2.154-6.158-4.079-8.836-4.954-7.354-2.404-9.581-5.435-9.871-13.432-.217-5.97-.322-5.906 4.926-3.025 2.491 1.368 4.988.525 7.421-2.503 1.544-1.92 2.145-1.67 3.768 1.567m-48.889-.986c1.265.322 3.245.824 4.4 1.114 3.051.767 3.64 1.203 4.233 3.135.608 1.98 2.248 4.108 5.709 7.41 2.779 2.651 2.59 2.983-1.401 2.456-6.631-.876-13.765-7.184-15.641-13.829-.296-1.05-.299-1.05 2.7-.286m111.712.864c-1.166 6.215-8.2 12.096-16.106 13.465-3.786.656-3.926.567-1.905-1.22 4.066-3.595 4.682-4.286 5.556-6.239 1.637-3.66 3.349-4.95 8.643-6.515 4.181-1.235 4.14-1.241 3.812.509m-120.869.622c.308.495.89 1.8 1.292 2.9s1.324 2.99 2.047 4.2c1.645 2.751 1.64 2.914-.138 4.27-6.28 4.79-17.349-2.292-15.895-10.17l.24-1.3 3.856-.023c2.12-.013 4.575-.172 5.455-.354 2.436-.504 2.541-.488 3.143.477m35.614.133c.134.348.249 1.653.257 2.9s.262 3.303.565 4.569c.528 2.212.517 2.326-.304 2.9-1.679 1.177-2.57.753-7.292-3.469-6.117-5.469-6.141-5.641-.838-6.123 1.729-.158 3.889-.522 4.8-.809 2.239-.706 2.53-.703 2.812.032m59.077-.068c1.009.307 3.079.674 4.6.817 5.832.546 5.835.477-.234 6-6.514 5.928-8.561 5.866-7.637-.23.279-1.843.562-4.162.628-5.152.067-.99.141-1.845.165-1.9.085-.194.663-.085 2.478.465m45.342.252c2.592 2.597-1.805 10.4-6.757 11.991-5.091 1.635-12.134-1.229-9.682-3.938.335-.371 1.281-2.113 2.101-3.872 2.407-5.157 2.109-4.99 8.489-4.783 3.052.099 5.61.362 5.849.602m-75.562 8.923c-.406.297-.766.91-.799 1.361-.132 1.781-3.415 3.654-3.415 1.948 0-1.247.927-1.99 2.041-1.636.718.228.832.154.62-.4-.144-.373-.261-.754-.261-.846 0-.382-1.878-.129-2.32.313-.697.697-.605 3.718.132 4.33.724.601 2.461-.014 2.842-1.007.446-1.161.981-.598.726.763-.301 1.604.604 2.372 2.12 1.8 1.286-.486 1.111-1.166-.3-1.166-1.348 0-1.63-.763-.4-1.084.44-.115.8-.437.8-.716s-.36-.601-.8-.716c-1.049-.274-1.027-1.358.034-1.695.576-.183 1.134.018 1.805.648l.971.912-.447-1.283c-.659-1.892-2.008-2.506-3.349-1.526m-52.04 6.532c1.554.81 4.086 1.941 5.626 2.513l2.8 1.041.119 2.587c.099 2.175.309 2.826 1.318 4.087l1.201 1.5-2.719-.003c-5.978-.007-13.043-1.983-18.231-5.1-2.96-1.779-5.724-4.069-4.209-3.488 1.255.481 5.586-.985 8.282-2.804 3.173-2.14 2.426-2.097 5.813-.333m108.815.335c2.751 1.963 3.802 2.399 6.732 2.791l1.922.257-1.722 1.375c-4.67 3.73-12.446 6.469-19.473 6.859l-4.152.231 1.052-1.795c.815-1.391 1.052-2.328 1.052-4.16V331.4l3.103-1.069c1.707-.589 4.182-1.698 5.5-2.465 3.071-1.787 2.999-1.791 5.986.341m-60.115-.958c-1.075.4-.767 1.298.327.951.584-.186.689-.067.519.584-.152.583-.021.816.46.816.516 0 .607-.21.389-.897-.253-.797-.211-.836.373-.351.67.556.886.198.352-.581-.471-.687-1.422-.893-2.42-.522m-20.255 2.785c1.777 1.836 3.543 2.856 6.176 3.565 3.691.993 7.424 3.166 13.764 8.01 1.069.816 2.017 1.191 3.012 1.191 1.476 0 1.983-.289 6.079-3.469 3.005-2.332 6.579-4.278 9.803-5.337 3.884-1.277 4.898-1.839 7.013-3.889 2.044-1.981 2.577-2.036 5.034-.519 2.358 1.456 1.091 5.724-2.98 10.04-3.051 3.234-5.696 4.692-11.52 6.352-5.566 1.585-7.825 2.72-10.94 5.494l-2.488 2.217-2.18-2.061c-2.518-2.381-6.422-4.356-11.511-5.822-8.426-2.427-12.927-6.023-14.692-11.736-.962-3.115-.829-3.684 1.117-4.767 2.115-1.178 2.534-1.107 4.313.731"/></svg>